<?xml version="1.0" standalone="no"?>
<!DOCTYPE svg PUBLIC "-//W3C//DTD SVG 20010904//EN"
 "http://www.w3.org/TR/2001/REC-SVG-20010904/DTD/svg10.dtd">
<svg version="1.0" xmlns="http://www.w3.org/2000/svg"
 width="1921.000000pt" height="401.000000pt" viewBox="0 0 1921.000000 401.000000"
 preserveAspectRatio="xMidYMid meet">
<metadata>
Created by potrace 1.16, written by Peter Selinger 2001-2019
</metadata>
<g transform="translate(0.000000,401.000000) scale(0.100000,-0.100000)" stroke="none">
<path fill="#8c1515" d="M0 2005 l0 -2005 9605 0 9605 0 0 150 0 150 -9455 0 -9455 0 0 1855
0 1855 -150 0 -150 0 0 -2005z"/>
<path fill="#8c1515" d="M640 3330 l0 -150 8880 0 8880 0 0 -1295 0 -1295 155 0 155 0 0 1445
0 1445 -9035 0 -9035 0 0 -150z"/>
<path fill="#28539c" d="M640 1715 l0 -1135 180 0 180 0 0 475 0 475 485 0 485 0 0 -475 0
-475 180 0 180 0 0 1135 0 1135 -180 0 -180 0 0 -475 0 -475 -485 0 -485 0 0
475 0 475 -180 0 -180 0 0 -1135z"/>
<path fill="#28539c" d="M3591 2768 c-21 -46 -259 -554 -530 -1130 -270 -576 -491 -1049 -491
-1053 0 -3 89 -4 197 -3 l198 3 76 170 76 170 528 0 529 0 76 -170 77 -170
196 -3 c109 -1 197 1 197 5 0 5 -238 514 -528 1133 -365 777 -534 1126 -545
1128 -13 3 -27 -18 -56 -80z m248 -1097 c105 -234 189 -426 187 -428 -2 -2
-174 -2 -383 -1 l-381 3 191 426 c106 235 193 426 193 425 1 0 88 -192 193
-425z"/>
<path fill="#28539c" d="M4960 1716 l0 -1136 185 0 185 0 0 440 0 441 131 -3 132 -3 304 -438
304 -437 220 0 c132 0 219 4 219 10 0 5 -144 208 -321 450 -177 243 -319 443
-318 444 2 2 38 21 79 41 55 28 96 59 156 119 86 87 119 137 160 250 39 103
46 288 15 400 -72 261 -270 453 -546 528 -75 20 -108 22 -492 26 l-413 4 0
-1136z m770 763 c134 -21 236 -94 292 -207 29 -59 33 -76 33 -147 -1 -65 -6
-91 -27 -136 -47 -103 -138 -181 -247 -213 -42 -12 -102 -16 -258 -16 l-203 0
0 365 0 365 173 0 c94 0 201 -5 237 -11z"/>
<path fill="#28539c" d="M6870 1716 l0 -1136 185 0 185 0 0 389 0 388 258 6 c214 4 271 9 338
26 277 69 485 261 565 521 30 95 32 260 6 360 -56 213 -206 392 -412 491 -165
80 -184 82 -682 87 l-443 4 0 -1136z m904 745 c86 -31 138 -64 189 -120 74
-83 92 -130 92 -241 0 -81 -4 -102 -24 -140 -55 -105 -133 -169 -252 -211 -56
-20 -89 -23 -276 -27 -117 -2 -224 -1 -238 2 l-25 6 0 381 0 381 238 -5 c209
-4 244 -7 296 -26z"/>
<path fill="#28539c" d="M8700 1715 l0 -1135 675 0 675 0 0 185 0 185 -495 0 -495 0 0 305 0
305 425 0 425 0 0 180 0 180 -425 0 -425 0 0 285 0 285 495 0 495 0 0 180 0
180 -675 0 -675 0 0 -1135z"/>
<path fill="#28539c" d="M10410 1716 l0 -1136 180 0 180 0 0 440 0 440 133 0 133 0 305 -439
304 -440 223 0 c122 -1 222 2 222 7 0 4 -145 207 -323 451 l-323 444 80 40
c147 74 270 221 326 387 34 100 39 262 11 370 -66 266 -268 466 -546 542 -75
20 -108 22 -492 26 l-413 4 0 -1136z m843 746 c110 -39 196 -123 233 -224 9
-24 16 -75 17 -114 1 -135 -86 -263 -221 -327 l-67 -32 -222 -3 -223 -3 0 367
0 366 213 -4 c182 -4 220 -8 270 -26z"/>
<path fill="#28539c" d="M12133 2836 c8 -21 697 -2184 709 -2224 7 -26 14 -33 30 -30 18 3 66
107 302 661 154 361 283 654 287 650 4 -5 134 -300 288 -658 246 -572 283
-650 302 -650 19 0 50 91 380 1130 197 621 359 1131 359 1133 0 1 -89 1 -197
0 l-198 -3 -204 -683 c-113 -375 -208 -679 -212 -675 -3 5 -118 290 -255 636
-175 440 -253 627 -263 625 -8 -2 -116 -260 -265 -635 -138 -348 -253 -633
-256 -633 -3 0 -97 308 -210 685 l-205 685 -198 0 c-169 0 -198 -2 -194 -14z"/>
<path fill="#28539c" d="M15510 2829 c-25 -45 -1042 -2215 -1047 -2232 -5 -16 7 -17 192 -15
l198 3 76 170 76 170 529 0 528 0 77 -172 76 -172 198 -1 c108 0 197 2 197 5
0 3 -238 512 -529 1133 -325 692 -535 1128 -544 1130 -9 2 -21 -7 -27 -19z
m219 -1164 l189 -420 -381 -3 c-209 -1 -382 -1 -383 1 -2 2 83 196 189 430
105 235 193 424 195 420 1 -5 87 -197 191 -428z"/>
<path fill="#28539c" d="M16180 2839 c0 -6 167 -299 370 -650 l370 -638 0 -486 0 -485 180 0
180 0 0 480 0 479 375 647 c206 356 375 651 375 656 0 4 -91 8 -202 8 l-203 0
-260 -444 c-143 -245 -262 -442 -265 -440 -3 3 -120 202 -260 442 l-255 437
-203 3 c-147 2 -202 -1 -202 -9z"/>
</g>
</svg>
